<svg version="1.1" id="Layer_1" xmlns="http://www.w3.org/2000/svg" xmlns:xlink="http://www.w3.org/1999/xlink" x="0px" y="0px"
	 width="100%" viewBox="0 0 1000 300" enable-background="new 0 0 1000 300" xml:space="preserve">
<path fill="#000000" opacity="1.000000" stroke="none" 
	d="
M642.000000,301.000000 
	C428.000000,301.000000 214.500000,301.000000 1.000000,301.000000 
	C1.000000,201.000000 1.000000,101.000000 1.000000,1.000000 
	C334.333344,1.000000 667.666687,1.000000 1001.000000,1.000000 
	C1001.000000,101.000000 1001.000000,201.000000 1001.000000,301.000000 
	C881.500000,301.000000 762.000000,301.000000 642.000000,301.000000 
M121.026283,98.761101 
	C121.400635,99.464996 121.774994,100.168900 122.149345,100.872795 
	C122.377342,99.915192 122.605339,98.957596 122.982941,97.563255 
	C122.982941,97.563255 123.049644,97.106445 123.683975,97.017937 
	C124.108566,97.050194 124.533150,97.082451 124.994041,97.913513 
	C125.454361,100.149330 125.914688,102.385139 126.234581,103.938889 
	C128.788055,96.058762 130.332031,87.237457 134.415588,79.812927 
	C138.646698,72.120102 145.888763,66.603317 155.352966,65.328911 
	C143.488602,72.279991 136.085999,82.541557 132.021317,95.631531 
	C135.494232,96.638649 138.748932,97.587219 142.006348,98.526299 
	C154.994919,102.270782 165.561050,97.652306 172.118439,87.412994 
	C177.808533,78.527977 183.764969,69.813782 189.482132,60.945698 
	C191.341080,58.062206 188.450317,57.650967 186.848740,57.078640 
	C176.073578,53.228088 164.852295,52.566013 153.934769,55.254753 
	C141.812393,58.240215 131.705795,64.581345 127.697289,77.621681 
	C127.322006,78.842529 126.266083,79.854149 125.526169,80.962914 
	C124.961891,79.641815 124.397614,78.320709 123.975594,76.104652 
	C123.649742,72.517715 123.586182,68.883469 122.949280,65.352638 
	C120.973289,54.398201 116.485176,44.588982 108.852692,36.369507 
	C96.066917,22.600397 79.402199,17.531498 61.451065,16.107639 
	C47.771866,15.022627 34.353447,17.467310 21.225454,21.361080 
	C16.004110,22.909735 15.604792,24.803968 19.250301,28.820038 
	C22.325726,32.208073 25.577196,35.561874 27.978518,39.412418 
	C34.856407,50.441181 41.291325,61.745129 48.000336,72.880676 
	C52.055378,79.611183 57.673470,84.684502 64.827660,88.031601 
	C81.477402,95.821182 97.128792,90.532265 112.596748,85.043137 
	C104.064095,58.155922 88.213783,38.750031 60.841030,30.102804 
	C64.889816,30.411900 68.715660,31.063444 72.455872,32.042229 
	C84.550980,35.207420 95.254532,41.045593 103.615692,50.347206 
	C112.647400,60.394775 117.018799,72.795044 119.642189,85.954697 
	C119.642189,85.954697 119.725296,85.930183 119.961021,86.524887 
	C120.362900,89.683144 120.764786,92.841408 121.027878,96.661766 
	C121.074142,97.107956 121.120407,97.554153 121.026283,98.761101 
M295.999878,232.841949 
	C295.999878,239.447388 295.999878,246.052826 295.999878,252.665527 
	C306.968384,252.665527 317.359650,252.665527 328.000000,252.665527 
	C328.000000,238.018906 327.784943,223.700027 328.135956,209.395035 
	C328.236328,205.303314 329.655731,201.139008 331.038605,197.207901 
	C333.197205,191.071518 343.395447,186.802155 349.349640,188.667130 
	C353.635742,190.009644 358.000519,191.101044 362.680054,192.401688 
	C363.828644,190.294586 365.298615,187.597977 366.768555,184.901352 
	C367.174438,185.014969 367.580322,185.128571 367.986206,185.242188 
	C367.986206,207.734741 367.986206,230.227295 367.986206,252.635864 
	C379.028809,252.635864 389.421204,252.635864 399.765869,252.635864 
	C399.765869,222.665787 399.765869,193.060455 399.765869,163.000000 
	C396.423584,163.000000 393.295410,163.094284 390.174652,162.981873 
	C381.750275,162.678436 373.281708,162.717041 364.921265,161.796814 
	C358.010376,161.036118 351.085632,159.634369 344.661774,162.902802 
	C338.921967,165.823196 333.641235,169.645905 327.908203,173.226425 
	C327.908203,170.216156 327.908203,166.694687 327.908203,163.230225 
	C317.004242,163.230225 306.732605,163.230225 295.501953,163.230225 
	C295.501953,171.832916 295.501953,180.234772 295.501953,188.636612 
	C283.869293,171.448425 268.933167,161.950027 248.380447,160.863174 
	C228.160522,159.793900 211.145676,165.816940 197.423294,181.373199 
	C197.924759,166.969070 194.742447,154.182297 187.779541,142.605774 
	C179.604965,129.014709 168.824875,118.009415 153.721313,111.913124 
	C141.849457,107.121239 129.833328,105.251938 116.876907,106.816368 
	C92.424065,109.768951 75.292015,122.794083 62.971283,143.250412 
	C52.931374,159.919830 52.169506,178.166641 55.092979,196.626434 
	C59.703331,225.737778 79.566437,247.797760 108.611801,254.480789 
	C98.654030,256.703033 93.376694,264.514587 86.697144,270.863708 
	C89.642761,275.358673 92.394287,279.557465 95.244797,283.907318 
	C104.467400,275.761322 115.154182,273.986786 126.436127,277.106079 
	C136.564575,279.906464 146.380310,283.820709 156.391800,287.065216 
	C171.808182,292.061279 187.243881,288.200470 197.728836,275.642212 
	C199.484421,273.539459 201.995773,270.073853 201.331207,268.292603 
	C198.587036,260.937225 194.755142,253.987732 191.280945,246.802185 
	C178.872589,256.751648 161.441940,259.031860 151.516724,252.848877 
	C158.577377,248.097641 166.610962,243.866257 173.140839,237.969650 
	C179.766479,231.986588 184.907455,224.359406 190.737930,217.405411 
	C191.692474,227.407211 196.649811,235.821594 204.122025,242.402786 
	C212.292435,249.598877 221.932053,253.829071 233.062027,255.232162 
	C246.423248,256.916534 259.129456,255.865250 271.387238,250.206390 
	C280.456696,246.019455 287.211212,239.309601 292.543945,230.996460 
	C293.066071,230.182526 294.097504,229.695312 294.892517,229.056458 
	C295.261383,230.015182 295.630249,230.973892 295.999878,232.841949 
M655.405640,163.000000 
	C646.981750,163.000000 638.557922,163.000000 630.263000,163.000000 
	C630.017273,165.420334 629.841553,167.151337 629.561340,169.911911 
	C617.216248,160.572495 603.836182,159.156601 589.966187,162.033630 
	C575.331848,165.069168 566.381409,175.254089 559.531616,189.246521 
	C557.259216,172.119751 547.122375,163.778259 532.425659,161.193329 
	C517.623230,158.589798 504.931458,163.727768 494.910492,175.775345 
	C487.731628,166.292496 478.888641,161.520798 467.519867,160.886230 
	C456.327484,160.261505 446.705505,163.301208 437.943054,172.181137 
	C437.943054,168.232895 437.943054,165.819717 437.943054,163.288193 
	C427.139435,163.288193 416.742493,163.288193 406.326294,163.288193 
	C406.326294,193.295059 406.326294,223.012543 406.326294,252.629059 
	C417.046753,252.629059 427.437469,252.629059 438.000031,252.629059 
	C438.000031,235.273438 437.828430,218.284943 438.146118,201.305603 
	C438.209015,197.944305 439.445496,194.119354 441.378204,191.381866 
	C445.153931,186.033859 450.978210,184.948227 457.143341,187.027771 
	C464.042938,189.355057 466.914978,196.427948 466.965912,201.379501 
	C467.075623,212.041641 466.999878,222.705688 467.000000,233.368958 
	C467.000061,239.804611 467.000000,246.240280 467.000000,252.660217 
	C477.983154,252.660217 488.372620,252.660217 499.000000,252.660217 
	C499.000000,250.506699 499.000000,248.691589 499.000000,246.876480 
	C499.000031,231.214798 499.176392,215.550262 498.921753,199.892715 
	C498.803802,192.640945 506.981903,183.914871 515.809692,186.814194 
	C523.651245,189.389618 527.942383,194.275223 527.983582,202.840775 
	C528.046143,215.836334 528.000000,228.832413 528.000000,241.828278 
	C528.000000,245.439529 528.000000,249.050781 528.000000,252.673645 
	C538.955750,252.673645 549.344849,252.673645 560.431152,252.673645 
	C560.431152,245.269836 560.431152,238.178680 560.431152,231.087540 
	C568.084290,243.700027 577.728699,252.417908 592.454651,255.122513 
	C606.888794,257.773529 619.433777,254.470016 631.088562,244.188766 
	C631.088562,247.785156 631.088562,250.201111 631.088562,252.698761 
	C641.556091,252.698761 651.618958,252.698761 661.660034,252.698761 
	C661.660034,222.679214 661.660034,192.962204 661.660034,163.000000 
	C659.673462,163.000000 658.025513,163.000000 655.405640,163.000000 
M830.999939,237.500061 
	C820.684631,227.189514 810.369263,216.878967 798.805481,205.320557 
	C813.121094,191.038666 827.168335,177.024506 841.218689,163.007278 
	C828.778076,163.007278 815.856262,162.932251 802.938232,163.119019 
	C801.590820,163.138504 800.064575,164.504578 798.962524,165.591766 
	C790.899841,173.546066 782.933960,181.598404 774.908691,189.590912 
	C773.958496,190.537231 772.834106,191.308640 770.948730,192.848694 
	C770.948730,162.235672 770.948730,132.842407 770.948730,103.278427 
	C760.140259,103.278427 749.753235,103.278427 738.914124,103.278427 
	C738.914124,122.967560 738.914124,142.383896 738.914124,162.298187 
	C723.576294,158.708893 710.249146,161.226273 699.739990,173.880524 
	C699.484802,173.473480 699.229675,173.066437 698.974487,172.659393 
	C698.974487,169.587082 698.974487,166.514786 698.974487,163.273956 
	C688.158081,163.273956 677.766663,163.273956 667.306763,163.273956 
	C667.306763,193.262726 667.306763,222.976547 667.306763,252.650452 
	C678.005554,252.650452 688.394226,252.650452 699.000000,252.650452 
	C699.000000,237.324295 698.912231,222.345917 699.038391,207.369324 
	C699.098206,200.266464 701.985413,194.304398 708.100281,190.533615 
	C713.061096,187.474457 718.722717,187.694382 724.159424,189.172012 
	C727.216919,190.003006 730.416992,193.111755 732.876831,192.495621 
	C735.031921,191.955826 736.243225,187.648041 737.871460,185.004669 
	C738.247620,185.059647 738.623840,185.114624 739.000000,185.169601 
	C739.000000,196.351044 739.000000,207.532486 739.000000,218.713928 
	C739.000000,229.994049 739.000000,241.274185 739.000000,252.720520 
	C749.861877,252.720520 760.248962,252.720520 771.308228,252.720520 
	C771.308228,241.661423 771.308228,230.867401 771.308228,218.507080 
	C782.496399,229.792358 792.466125,240.025299 802.697144,249.989914 
	C804.354187,251.603806 807.139038,252.764771 809.458008,252.866013 
	C817.438904,253.214478 825.444397,253.000000 833.440491,253.000000 
	C837.475220,253.000000 841.510010,253.000000 846.796265,253.000000 
	C841.002930,247.318817 836.251465,242.659393 830.999939,237.500061 
M934.720459,130.002594 
	C931.352295,129.594971 932.014160,132.029465 932.010010,133.914505 
	C931.989075,143.513947 932.000305,153.113464 932.000305,163.203308 
	C927.320374,163.203308 923.252747,163.203308 918.732239,163.203308 
	C918.732239,167.741592 918.732239,171.778427 918.732239,176.404343 
	C915.361450,173.601974 912.672852,171.144791 909.762146,168.987167 
	C899.849976,161.639496 888.411316,160.840942 876.569519,160.917282 
	C852.800171,161.070465 830.563477,181.966492 830.123413,207.025360 
	C829.774353,226.903824 839.006287,242.266479 856.810120,250.704895 
	C876.019714,259.809509 895.463989,258.192383 913.731934,246.763245 
	C919.483459,243.164856 923.486511,238.029526 927.029968,231.991440 
	C919.813599,228.422028 913.158630,224.978241 906.337524,221.902939 
	C905.171692,221.377274 902.839783,221.918991 901.822998,222.832169 
	C895.886841,228.163528 889.039062,231.380066 881.123413,230.425537 
	C869.838318,229.064713 865.844666,224.817764 863.214355,212.921097 
	C884.730347,212.921097 906.157471,212.921097 928.685913,212.921097 
	C927.751343,204.354279 926.875000,196.320999 925.990967,188.217407 
	C927.385803,188.217407 929.479431,188.217407 932.000000,188.217407 
	C932.000000,190.217621 931.959839,192.021149 932.006409,193.822418 
	C932.327515,206.244339 932.216003,218.700531 933.170105,231.074280 
	C933.736694,238.423126 936.527527,245.524216 943.041687,249.945419 
	C956.113708,258.817383 969.856079,257.443726 983.591614,251.630783 
	C984.714905,251.155396 986.024109,248.724640 985.713867,247.641602 
	C983.536072,240.038544 980.955566,232.550827 978.427429,224.791977 
	C977.281433,225.195221 976.359253,225.460083 975.485352,225.836853 
	C969.084473,228.596619 964.455627,226.289581 964.138000,219.320251 
	C963.670349,209.055725 964.017395,198.754074 964.017395,187.965302 
	C970.500916,187.965302 976.571472,187.965302 982.682617,187.965302 
	C982.682617,179.396622 982.682617,171.339981 982.682617,162.781036 
	C976.306091,162.781036 970.235779,162.781036 963.866699,162.781036 
	C963.866699,151.667725 963.866699,141.060669 963.866699,130.000366 
	C954.257141,130.000366 944.972168,130.000366 934.720459,130.002594 
M384.551575,108.000015 
	C373.944641,107.667091 365.408539,117.326363 365.973511,127.036255 
	C366.509460,136.247437 372.661865,145.530457 384.699097,145.584579 
	C395.419617,145.632767 404.290070,137.002914 403.914825,126.981079 
	C403.499481,115.887878 394.495575,107.541145 384.551575,108.000015 
z"/>
<path fill="#EAA300" opacity="1.000000" stroke="none" 
	d="
M295.999512,232.387268 
	C295.630249,230.973892 295.261383,230.015182 294.892517,229.056458 
	C294.097504,229.695312 293.066071,230.182526 292.543945,230.996460 
	C287.211212,239.309601 280.456696,246.019455 271.387238,250.206390 
	C259.129456,255.865250 246.423248,256.916534 233.062027,255.232162 
	C221.932053,253.829071 212.292435,249.598877 204.122025,242.402786 
	C196.649811,235.821594 191.692474,227.407211 190.737930,217.405411 
	C184.907455,224.359406 179.766479,231.986588 173.140839,237.969650 
	C166.610962,243.866257 158.577377,248.097641 151.516724,252.848877 
	C161.441940,259.031860 178.872589,256.751648 191.280945,246.802185 
	C194.755142,253.987732 198.587036,260.937225 201.331207,268.292603 
	C201.995773,270.073853 199.484421,273.539459 197.728836,275.642212 
	C187.243881,288.200470 171.808182,292.061279 156.391800,287.065216 
	C146.380310,283.820709 136.564575,279.906464 126.436127,277.106079 
	C115.154182,273.986786 104.467400,275.761322 95.244797,283.907318 
	C92.394287,279.557465 89.642761,275.358673 86.697144,270.863708 
	C93.376694,264.514587 98.654030,256.703033 108.611801,254.480789 
	C79.566437,247.797760 59.703331,225.737778 55.092979,196.626434 
	C52.169506,178.166641 52.931374,159.919830 62.971283,143.250412 
	C75.292015,122.794083 92.424065,109.768951 116.876907,106.816368 
	C129.833328,105.251938 141.849457,107.121239 153.721313,111.913124 
	C168.824875,118.009415 179.604965,129.014709 187.779541,142.605774 
	C194.742447,154.182297 197.924759,166.969070 197.423294,181.373199 
	C211.145676,165.816940 228.160522,159.793900 248.380447,160.863174 
	C268.933167,161.950027 283.869293,171.448425 295.501953,188.636612 
	C295.501953,180.234772 295.501953,171.832916 295.501953,163.230225 
	C306.732605,163.230225 317.004242,163.230225 327.908203,163.230225 
	C327.908203,166.694687 327.908203,170.216156 327.908203,173.226425 
	C333.641235,169.645905 338.921967,165.823196 344.661774,162.902802 
	C351.085632,159.634369 358.010376,161.036118 364.921265,161.796814 
	C373.281708,162.717041 381.750275,162.678436 390.174652,162.981873 
	C393.295410,163.094284 396.423584,163.000000 399.765869,163.000000 
	C399.765869,193.060455 399.765869,222.665787 399.765869,252.635864 
	C389.421204,252.635864 379.028809,252.635864 367.986206,252.635864 
	C367.986206,230.227295 367.986206,207.734741 367.986206,185.242188 
	C367.580322,185.128571 367.174438,185.014969 366.768555,184.901352 
	C365.298615,187.597977 363.828644,190.294586 362.680054,192.401688 
	C358.000519,191.101044 353.635742,190.009644 349.349640,188.667130 
	C343.395447,186.802155 333.197205,191.071518 331.038605,197.207901 
	C329.655731,201.139008 328.236328,205.303314 328.135956,209.395035 
	C327.784943,223.700027 328.000000,238.018906 328.000000,252.665527 
	C317.359650,252.665527 306.968384,252.665527 295.999878,252.665527 
	C295.999878,246.052826 295.999878,239.447388 295.999512,232.387268 
M154.948730,206.274216 
	C159.490524,197.708664 161.400177,188.633011 161.062347,178.900894 
	C160.479111,162.099121 151.445526,142.807175 131.354034,140.443832 
	C119.837021,139.089127 102.983902,143.480713 96.198387,156.251556 
	C89.800720,168.292419 88.545929,180.833069 91.141777,193.835312 
	C92.717026,201.725479 95.763855,209.524109 102.278343,214.498352 
	C117.268745,225.944580 143.093750,225.611755 154.948730,206.274216 
M239.483566,228.102036 
	C243.559692,227.759918 247.837097,228.089645 251.671555,226.940857 
	C260.655548,224.249252 265.553894,214.795029 263.977234,204.516266 
	C262.683899,196.084457 254.044693,188.647049 245.790070,187.906784 
	C235.255798,186.962082 222.580917,195.773682 223.824188,209.316086 
	C224.727783,219.158630 229.330566,226.031860 239.483566,228.102036 
z"/>
<path fill="#EAA300" opacity="1.000000" stroke="none" 
	d="
M655.891602,163.000000 
	C658.025513,163.000000 659.673462,163.000000 661.660034,163.000000 
	C661.660034,192.962204 661.660034,222.679214 661.660034,252.698761 
	C651.618958,252.698761 641.556091,252.698761 631.088562,252.698761 
	C631.088562,250.201111 631.088562,247.785156 631.088562,244.188766 
	C619.433777,254.470016 606.888794,257.773529 592.454651,255.122513 
	C577.728699,252.417908 568.084290,243.700027 560.431152,231.087540 
	C560.431152,238.178680 560.431152,245.269836 560.431152,252.673645 
	C549.344849,252.673645 538.955750,252.673645 528.000000,252.673645 
	C528.000000,249.050781 528.000000,245.439529 528.000000,241.828278 
	C528.000000,228.832413 528.046143,215.836334 527.983582,202.840775 
	C527.942383,194.275223 523.651245,189.389618 515.809692,186.814194 
	C506.981903,183.914871 498.803802,192.640945 498.921753,199.892715 
	C499.176392,215.550262 499.000031,231.214798 499.000000,246.876480 
	C499.000000,248.691589 499.000000,250.506699 499.000000,252.660217 
	C488.372620,252.660217 477.983154,252.660217 467.000000,252.660217 
	C467.000000,246.240280 467.000061,239.804611 467.000000,233.368958 
	C466.999878,222.705688 467.075623,212.041641 466.965912,201.379501 
	C466.914978,196.427948 464.042938,189.355057 457.143341,187.027771 
	C450.978210,184.948227 445.153931,186.033859 441.378204,191.381866 
	C439.445496,194.119354 438.209015,197.944305 438.146118,201.305603 
	C437.828430,218.284943 438.000031,235.273438 438.000031,252.629059 
	C427.437469,252.629059 417.046753,252.629059 406.326294,252.629059 
	C406.326294,223.012543 406.326294,193.295059 406.326294,163.288193 
	C416.742493,163.288193 427.139435,163.288193 437.943054,163.288193 
	C437.943054,165.819717 437.943054,168.232895 437.943054,172.181137 
	C446.705505,163.301208 456.327484,160.261505 467.519867,160.886230 
	C478.888641,161.520798 487.731628,166.292496 494.910492,175.775345 
	C504.931458,163.727768 517.623230,158.589798 532.425659,161.193329 
	C547.122375,163.778259 557.259216,172.119751 559.531616,189.246521 
	C566.381409,175.254089 575.331848,165.069168 589.966187,162.033630 
	C603.836182,159.156601 617.216248,160.572495 629.561340,169.911911 
	C629.841553,167.151337 630.017273,165.420334 630.263000,163.000000 
	C638.557922,163.000000 646.981750,163.000000 655.891602,163.000000 
M613.156372,188.000809 
	C604.795349,187.130173 598.073608,190.053055 593.479309,197.089722 
	C586.494019,207.788574 591.221436,221.729279 600.724304,226.388855 
	C611.660095,231.751007 623.915894,227.700531 629.113403,216.767853 
	C634.306152,205.845383 627.828491,190.311722 613.156372,188.000809 
z"/>
<path fill="#EAA300" opacity="1.000000" stroke="none" 
	d="
M831.250000,237.750015 
	C836.251465,242.659393 841.002930,247.318817 846.796265,253.000000 
	C841.510010,253.000000 837.475220,253.000000 833.440491,253.000000 
	C825.444397,253.000000 817.438904,253.214478 809.458008,252.866013 
	C807.139038,252.764771 804.354187,251.603806 802.697144,249.989914 
	C792.466125,240.025299 782.496399,229.792358 771.308228,218.507080 
	C771.308228,230.867401 771.308228,241.661423 771.308228,252.720520 
	C760.248962,252.720520 749.861877,252.720520 739.000000,252.720520 
	C739.000000,241.274185 739.000000,229.994049 739.000000,218.713928 
	C739.000000,207.532486 739.000000,196.351044 739.000000,185.169601 
	C738.623840,185.114624 738.247620,185.059647 737.871460,185.004669 
	C736.243225,187.648041 735.031921,191.955826 732.876831,192.495621 
	C730.416992,193.111755 727.216919,190.003006 724.159424,189.172012 
	C718.722717,187.694382 713.061096,187.474457 708.100281,190.533615 
	C701.985413,194.304398 699.098206,200.266464 699.038391,207.369324 
	C698.912231,222.345917 699.000000,237.324295 699.000000,252.650452 
	C688.394226,252.650452 678.005554,252.650452 667.306763,252.650452 
	C667.306763,222.976547 667.306763,193.262726 667.306763,163.273956 
	C677.766663,163.273956 688.158081,163.273956 698.974487,163.273956 
	C698.974487,166.514786 698.974487,169.587082 698.974487,172.659393 
	C699.229675,173.066437 699.484802,173.473480 699.739990,173.880524 
	C710.249146,161.226273 723.576294,158.708893 738.914124,162.298187 
	C738.914124,142.383896 738.914124,122.967560 738.914124,103.278427 
	C749.753235,103.278427 760.140259,103.278427 770.948730,103.278427 
	C770.948730,132.842407 770.948730,162.235672 770.948730,192.848694 
	C772.834106,191.308640 773.958496,190.537231 774.908691,189.590912 
	C782.933960,181.598404 790.899841,173.546066 798.962524,165.591766 
	C800.064575,164.504578 801.590820,163.138504 802.938232,163.119019 
	C815.856262,162.932251 828.778076,163.007278 841.218689,163.007278 
	C827.168335,177.024506 813.121094,191.038666 798.805481,205.320557 
	C810.369263,216.878967 820.684631,227.189514 831.250000,237.750015 
z"/>
<path fill="#EAA300" opacity="1.000000" stroke="none" 
	d="
M935.203857,130.001480 
	C944.972168,130.000366 954.257141,130.000366 963.866699,130.000366 
	C963.866699,141.060669 963.866699,151.667725 963.866699,162.781036 
	C970.235779,162.781036 976.306091,162.781036 982.682617,162.781036 
	C982.682617,171.339981 982.682617,179.396622 982.682617,187.965302 
	C976.571472,187.965302 970.500916,187.965302 964.017395,187.965302 
	C964.017395,198.754074 963.670349,209.055725 964.138000,219.320251 
	C964.455627,226.289581 969.084473,228.596619 975.485352,225.836853 
	C976.359253,225.460083 977.281433,225.195221 978.427429,224.791977 
	C980.955566,232.550827 983.536072,240.038544 985.713867,247.641602 
	C986.024109,248.724640 984.714905,251.155396 983.591614,251.630783 
	C969.856079,257.443726 956.113708,258.817383 943.041687,249.945419 
	C936.527527,245.524216 933.736694,238.423126 933.170105,231.074280 
	C932.216003,218.700531 932.327515,206.244339 932.006409,193.822418 
	C931.959839,192.021149 932.000000,190.217621 932.000000,188.217407 
	C929.479431,188.217407 927.385803,188.217407 925.990967,188.217407 
	C926.875000,196.320999 927.751343,204.354279 928.685913,212.921097 
	C906.157471,212.921097 884.730347,212.921097 863.214355,212.921097 
	C865.844666,224.817764 869.838318,229.064713 881.123413,230.425537 
	C889.039062,231.380066 895.886841,228.163528 901.822998,222.832169 
	C902.839783,221.918991 905.171692,221.377274 906.337524,221.902939 
	C913.158630,224.978241 919.813599,228.422028 927.029968,231.991440 
	C923.486511,238.029526 919.483459,243.164856 913.731934,246.763245 
	C895.463989,258.192383 876.019714,259.809509 856.810120,250.704895 
	C839.006287,242.266479 829.774353,226.903824 830.123413,207.025360 
	C830.563477,181.966492 852.800171,161.070465 876.569519,160.917282 
	C888.411316,160.840942 899.849976,161.639496 909.762146,168.987167 
	C912.672852,171.144791 915.361450,173.601974 918.732239,176.404343 
	C918.732239,171.778427 918.732239,167.741592 918.732239,163.203308 
	C923.252747,163.203308 927.320374,163.203308 932.000305,163.203308 
	C932.000305,153.113464 931.989075,143.513947 932.010010,133.914505 
	C932.014160,132.029465 931.352295,129.594971 935.203857,130.001480 
M884.067749,182.000595 
	C882.244202,182.000397 880.420715,181.994888 878.597168,182.000946 
	C870.705444,182.027161 865.476440,186.800446 864.584778,194.763641 
	C875.290466,194.763641 885.997498,194.763641 896.978210,194.763641 
	C895.223816,188.058640 891.766602,183.449646 884.067749,182.000595 
z"/>
<path fill="#EAA300" opacity="1.000000" stroke="none" 
	d="
M119.609650,85.874382 
	C117.018799,72.795044 112.647400,60.394775 103.615692,50.347206 
	C95.254532,41.045593 84.550980,35.207420 72.455872,32.042229 
	C68.715660,31.063444 64.889816,30.411900 60.841030,30.102804 
	C88.213783,38.750031 104.064095,58.155922 112.596748,85.043137 
	C97.128792,90.532265 81.477402,95.821182 64.827660,88.031601 
	C57.673470,84.684502 52.055378,79.611183 48.000336,72.880676 
	C41.291325,61.745129 34.856407,50.441181 27.978518,39.412418 
	C25.577196,35.561874 22.325726,32.208073 19.250301,28.820038 
	C15.604792,24.803968 16.004110,22.909735 21.225454,21.361080 
	C34.353447,17.467310 47.771866,15.022627 61.451065,16.107639 
	C79.402199,17.531498 96.066917,22.600397 108.852692,36.369507 
	C116.485176,44.588982 120.973289,54.398201 122.949280,65.352638 
	C123.586182,68.883469 123.649742,72.517715 123.504807,76.642303 
	C121.892570,80.078087 120.751106,82.976234 119.609650,85.874382 
z"/>
<path fill="#EAA300" opacity="1.000000" stroke="none" 
	d="
M119.625916,85.914536 
	C120.751106,82.976234 121.892570,80.078087 123.433678,77.089775 
	C124.397614,78.320709 124.961891,79.641815 125.526176,80.962921 
	C126.266083,79.854149 127.322006,78.842529 127.697289,77.621681 
	C131.705795,64.581345 141.812393,58.240215 153.934769,55.254753 
	C164.852295,52.566013 176.073578,53.228088 186.848740,57.078640 
	C188.450317,57.650967 191.341080,58.062206 189.482132,60.945698 
	C183.764969,69.813782 177.808533,78.527977 172.118439,87.412994 
	C165.561050,97.652306 154.994919,102.270782 142.006348,98.526299 
	C138.748932,97.587219 135.494232,96.638649 132.021317,95.631531 
	C136.085999,82.541557 143.488602,72.279991 155.352966,65.328911 
	C145.888763,66.603317 138.646698,72.120102 134.415588,79.812927 
	C130.332031,87.237457 128.788055,96.058762 126.234581,103.938889 
	C125.914688,102.385139 125.454361,100.149330 125.065292,97.108093 
	C125.766502,92.061462 126.396454,87.820251 127.136497,82.837799 
	C124.200912,84.062698 121.963104,84.996437 119.725296,85.930183 
	C119.725296,85.930183 119.642189,85.954697 119.625916,85.914536 
z"/>
<path fill="#EAA300" opacity="1.000000" stroke="none" 
	d="
M384.992432,108.000015 
	C394.495575,107.541145 403.499481,115.887878 403.914825,126.981079 
	C404.290070,137.002914 395.419617,145.632767 384.699097,145.584579 
	C372.661865,145.530457 366.509460,136.247437 365.973511,127.036255 
	C365.408539,117.326363 373.944641,107.667091 384.992432,108.000015 
z"/>
<path fill="#EAA300" opacity="1.000000" stroke="none" 
	d="
M119.843155,86.227539 
	C121.963104,84.996437 124.200912,84.062698 127.136497,82.837799 
	C126.396454,87.820251 125.766502,92.061462 125.047150,96.708694 
	C124.533150,97.082451 124.108566,97.050194 123.168159,96.868179 
	C122.157120,96.478828 121.661888,96.239243 121.166664,95.999664 
	C120.764786,92.841408 120.362900,89.683144 119.843155,86.227539 
z"/>
<path fill="#EAA300" opacity="1.000000" stroke="none" 
	d="
M122.833336,97.999992 
	C122.605339,98.957596 122.377342,99.915192 122.149345,100.872795 
	C121.774994,100.168900 121.400635,99.464996 121.374252,98.380623 
	C122.092590,98.000092 122.462959,98.000046 122.833336,97.999992 
z"/>
<path fill="#EAA300" opacity="1.000000" stroke="none" 
	d="
M122.908142,97.781624 
	C122.462959,98.000046 122.092590,98.000092 121.444443,98.000244 
	C121.120407,97.554153 121.074142,97.107956 121.097275,96.330719 
	C121.661888,96.239243 122.157120,96.478828 122.850998,96.912430 
	C123.049644,97.106445 122.982941,97.563255 122.908142,97.781624 
z"/>
<path fill="#000000" opacity="1.000000" stroke="none" 
	d="
M154.758942,206.597076 
	C143.093750,225.611755 117.268745,225.944580 102.278343,214.498352 
	C95.763855,209.524109 92.717026,201.725479 91.141777,193.835312 
	C88.545929,180.833069 89.800720,168.292419 96.198387,156.251556 
	C102.983902,143.480713 119.837021,139.089127 131.354034,140.443832 
	C151.445526,142.807175 160.479111,162.099121 161.062347,178.900894 
	C161.400177,188.633011 159.490524,197.708664 154.758942,206.597076 
z"/>
<path fill="#000000" opacity="1.000000" stroke="none" 
	d="
M239.064758,228.058411 
	C229.330566,226.031860 224.727783,219.158630 223.824188,209.316086 
	C222.580917,195.773682 235.255798,186.962082 245.790070,187.906784 
	C254.044693,188.647049 262.683899,196.084457 263.977234,204.516266 
	C265.553894,214.795029 260.655548,224.249252 251.671555,226.940857 
	C247.837097,228.089645 243.559692,227.759918 239.064758,228.058411 
z"/>
<path fill="#000000" opacity="1.000000" stroke="none" 
	d="
M613.595703,188.003189 
	C627.828491,190.311722 634.306152,205.845383 629.113403,216.767853 
	C623.915894,227.700531 611.660095,231.751007 600.724304,226.388855 
	C591.221436,221.729279 586.494019,207.788574 593.479309,197.089722 
	C598.073608,190.053055 604.795349,187.130173 613.595703,188.003189 
z"/>
<path fill="#000000" opacity="1.000000" stroke="none" 
	d="
M884.504211,182.002335 
	C891.766602,183.449646 895.223816,188.058640 896.978210,194.763641 
	C885.997498,194.763641 875.290466,194.763641 864.584778,194.763641 
	C865.476440,186.800446 870.705444,182.027161 878.597168,182.000946 
	C880.420715,181.994888 882.244202,182.000397 884.504211,182.002335 
z"/>
</svg>